<svg xmlns="http://www.w3.org/2000/svg" xmlns:xlink="http://www.w3.org/1999/xlink" viewBox="0 0 318.31 371.38" version="1.0"><defs><linearGradient id="a"><stop offset="0" stop-color="#8ae234"/><stop offset="1" stop-color="#8ae234" stop-opacity="0"/></linearGradient><linearGradient id="g" y2="1136.3" gradientUnits="userSpaceOnUse" x2="323.23" gradientTransform="translate(223.75 213.3) scale(.46024)" y1="1362.4" x1="568.17"><stop offset="0" stop-color="#8f5902"/><stop offset="1" stop-color="#c17d11"/></linearGradient><linearGradient id="f" y2="460.03" xlink:href="#a" gradientUnits="userSpaceOnUse" x2="312.62" gradientTransform="translate(378.03 72.506) scale(.57656)" y1="353.91" x1="190.71"/><linearGradient id="e" y2="365.25" xlink:href="#a" gradientUnits="userSpaceOnUse" x2="144.57" gradientTransform="matrix(-.25133 -.38555 -.38555 .25133 813.91 400.48)" y1="422.88" x1="341.93"/><linearGradient id="d" y2="460.03" xlink:href="#a" gradientUnits="userSpaceOnUse" x2="312.62" gradientTransform="translate(234.78 221.18) scale(.46024)" y1="353.91" x1="190.71"/><radialGradient id="c" gradientUnits="userSpaceOnUse" cy="540.13" cx="597.54" gradientTransform="matrix(1.1476 -.11062 .06355 .65928 -309.66 236.85)" r="215"><stop offset="0" stop-color="#4e9a06"/><stop offset="1" stop-color="#73d216"/></radialGradient><filter id="b" color-interpolation-filters="sRGB"><feGaussianBlur stdDeviation="4.726"/></filter></defs><path transform="translate(53.559 -27.825) scale(.26887)" d="M434.15 1292c-156.35 0-290.01 24.071-343.31 57.992-114.36 3.694-202.73 27.837-202.73 57.03 0 31.746 104.5 57.511 233.28 57.511 38.83 0 75.46-2.35 107.68-6.493 58.616 9.721 129.18 15.403 205.09 15.403 63.704 0 123.66-4.005 175.93-11.036 36.9 5.947 80.981 9.417 128.33 9.417 129.69 0 234.93-25.946 234.93-57.916 0-27.823-79.716-51.084-185.88-56.65C742.791 1319.56 601.45 1292 434.16 1292z" opacity=".35" filter="url(#b)"/><path d="M433.02 254.87c-71.957 0-133.47 46.822-158 112.8-52.631 7.185-93.305 54.148-93.305 110.93 0 61.751 48.092 111.87 107.36 111.87 17.871 0 34.73-4.572 49.557-12.629 26.977 18.909 59.452 29.961 94.388 29.961 29.319 0 56.913-7.791 80.971-21.467 16.983 11.567 37.27 18.316 59.06 18.316 59.687 0 108.13-50.469 108.13-112.66 0-54.12-36.688-99.366-85.55-110.19-20.563-73.325-85.612-126.93-162.61-126.93z" fill="url(#c)" transform="translate(-106.15 -148.9) scale(.5842)"/><path d="M52.262 133.555l4.541-6.681c32.562 16.671 62.697 45.674 84.312 35.261l-18.975 36.62c-4.208-28.377-46.147-36.273-69.877-65.202z" fill="#c07c10"/><path d="M205.55 136.44l-4.212-6.196c-30.201 15.463-58.149 42.362-78.201 32.704l17.6 33.966c3.902-26.32 42.8-33.644 64.81-60.47z" fill="#af710f"/><path d="M299.91 373.04a78.361 78.361 0 00-33.463 7.463 98.185 98.185 0 0114.099-1.008c50.073 0 91.358 37.816 96.84 86.432a78.933 78.933 0 001.27-14.14c0-43.468-35.277-78.747-78.746-78.747z" fill="url(#d)" transform="translate(-106.15 -148.9) scale(.5842)"/><path d="M651.13 428.85a78.355 78.355 0 0112.022 32.109 98.176 98.176 0 00-6.855-12.362c-27.345-41.947-81.569-55.882-125.29-33.925a78.94 78.94 0 0111.151-8.786c36.414-23.738 85.233-13.45 108.97 22.965z" fill="url(#e)" transform="translate(-106.15 -148.9) scale(.5842)"/><path d="M459.63 262.75c-14.99 0-29.194 3.36-41.921 9.35a123.004 123.004 0 0117.663-1.264c62.729 0 114.45 47.374 121.32 108.28a98.886 98.886 0 001.592-17.713c0-54.455-44.195-98.65-98.65-98.65z" fill="url(#f)" transform="translate(-106.15 -148.9) scale(.5842)"/><path d="M407.02 346.25l15.756 1.576c20.483 136.55-26.785 391.27 88.233 507.34-34.632 2.697-67.6-13.277-105.47 8.737-14.18-11.029-96.205-4.01-96.205-4.01 93.485-124.47 73.528-376.57 97.687-513.64z" fill="url(#g)" transform="translate(-106.15 -148.9) scale(.5842)"/><path d="M125.31 353.798c-2.943-1.733-9.022.576-9.196-4.134-3.891-9.964-15.45-14.537-14.47-25.756.617-17.17 18.045-37.025 16.053-54.55.589-6.824-5.095-12.312-5.184-18.682 3.081-19.545 5.629-39.224 6.902-58.975-1.975-6.606-1.126-13.906-4.384-20.205-.757-3.701-7.46-12.106-4.4-12.78 5.388 2.744 12.975 2.813 14.465 9.926 4.964 8.822 5.312 19.485 1.974 28.928-3.553 12.253-9.904 24.159-8.714 37.286-1.013 13.18 10.551 22.874 10.893 35.809.642 17.774-12.13 33.06-11.087 50.94-.47 11.756 7.648 21.193 10.52 32.088.375 1.898-2.603-.11-3.372.104z" opacity=".2" fill="#fff"/><path d="M167.267 348.803c-7.252-14.92-12.513-34.03-10.115-50.226.748-1.262.928-4.136 2.45-4.33 1.988 5.122 3.86 10.302 5.87 15.421-1.47.247-1.405 3.248-1.522 4.849-.113 4.864-.375 9.79.458 14.605 1.35 6.032 4.653 11.368 7.096 16.987.265 1.228 2.861 4.29.1 3.563-3.337-.224-1.008-.56-4.337-.87z" opacity=".2"/><path d="M133.027 351.304c-4.262-10.636-11.005-20.903-9.678-32.902 1.08-18.45 15.215-35.119 9.944-54.134-3.17-10.267-10.863-19.234-9.938-30.594-.429-19.911 16.13-37.693 9.607-57.948-3.143-7.427-6.308-16.1-10.23-22.484 1.088-8.32-1.165-18.279 3.708-25.222 5.657-14.634 12.384-31.75 3.99-46.767-5.221-5.813 1.004-16.861.754-24.631 1.236-6.476 6.698-1.74 3.777 3.026.244 9.325.545 18.28 3.797 26.602.066 8.476-.768 13.048-1.065 21.465-5.515 15.87-7.32 36.4.418 52.957 3.57 8.584 5.069 17.433 2.212 27.127.22 16.347-6.333 30.479-5.349 47.038-.754 14.036 12.39 24.284 11.045 38.31.156 18.42-6.935 34.541-3.518 53.355-2.192 9.026 9.301 22.753-4.356 25.837-2.04.51-4.932 3.081-5.118-1.034z" opacity=".1" fill="#fff"/><path d="M97.21 354.82l-5.602-.518c-3.738-7.811-6.266-7.021-7.217-15.786l10.545-15.758c-.09 4.872-3.379-5.188-1.475 6.127 1.436 6.035 5.739 17.389 8.184 23.037.312 1.188 2.61 3.99-.043 3.25a151.638 151.638 0 01-4.391-.351z" opacity=".2" fill="#babdb6"/></svg>
